<svg width="309" height="96" viewBox="0 0 309 96" fill="none" xmlns="http://www.w3.org/2000/svg">
<path d="M126.607 28.6646H145.666V30.9448C145.666 35.9031 143.96 40.0291 140.547 43.3227C137.135 46.58 132.615 48.2087 126.988 48.2087C121.18 48.2087 116.37 46.3085 112.558 42.5083C108.782 38.6357 106.894 33.9668 106.894 28.5017C106.894 23.0366 108.782 18.3859 112.558 14.5495C116.37 10.713 121.143 8.79482 126.879 8.79482C130.364 8.79482 133.595 9.64535 136.572 11.3464C139.585 13.0475 141.854 15.2552 143.379 17.9697L139.023 20.5213C137.934 18.4583 136.282 16.8115 134.067 15.581C131.853 14.3142 129.439 13.6808 126.825 13.6808C122.432 13.6808 118.856 15.1104 116.097 17.9697C113.302 20.8289 111.904 24.3396 111.904 28.5017C111.904 32.6639 113.302 36.1746 116.097 39.0338C118.929 41.8568 122.577 43.2684 127.043 43.2684C130.782 43.2684 133.831 42.3635 136.191 40.5539C138.587 38.7081 140.057 36.2651 140.602 33.2249H126.607V28.6646Z" fill="#B8601C"/>
<path d="M181.121 47.5029H175.512L166.963 32.9534H157.978V47.5029H152.913V9.50058H168.161C171.428 9.50058 174.223 10.6587 176.547 12.9751C178.87 15.2552 180.032 18.024 180.032 21.2813C180.032 23.7424 179.288 25.9864 177.799 28.0131C176.274 30.0761 174.387 31.5057 172.136 32.302L181.121 47.5029ZM168.161 14.2237H157.978V28.3932H168.161C170.048 28.3932 171.646 27.7055 172.953 26.3302C174.296 24.9549 174.967 23.2719 174.967 21.2813C174.967 19.2907 174.296 17.6258 172.953 16.2867C171.646 14.9114 170.048 14.2237 168.161 14.2237Z" fill="#B8601C"/>
<path d="M185.118 28.5017C185.118 23.0005 187.024 18.3497 190.835 14.5495C194.647 10.713 199.312 8.79482 204.83 8.79482C210.348 8.79482 215.013 10.713 218.825 14.5495C222.673 18.3497 224.597 23.0005 224.597 28.5017C224.597 33.9668 222.673 38.6176 218.825 42.454C215.013 46.2905 210.348 48.2087 204.83 48.2087C199.312 48.2087 194.647 46.2905 190.835 42.454C187.024 38.5814 185.118 33.9306 185.118 28.5017ZM219.533 28.5017C219.533 24.3034 218.117 20.7927 215.286 17.9697C212.527 15.1104 209.042 13.6808 204.83 13.6808C200.656 13.6808 197.152 15.1104 194.321 17.9697C191.525 20.8289 190.128 24.3396 190.128 28.5017C190.128 32.6277 191.525 36.1384 194.321 39.0338C197.152 41.8568 200.656 43.2684 204.83 43.2684C209.042 43.2684 212.527 41.8568 215.286 39.0338C218.117 36.1384 219.533 32.6277 219.533 28.5017Z" fill="#B8601C"/>
<path d="M255.463 37.8395V9.50058H260.527V47.5029H256.443L236.839 19.1097V47.5029H231.775V9.50058H235.859L255.463 37.8395Z" fill="#B8601C"/>
<path d="M269.77 47.5029V9.50058H274.834V47.5029H269.77Z" fill="#B8601C"/>
<path d="M295.822 48.2087C292.264 48.2087 289.215 47.3943 286.674 45.7657C284.169 44.1008 282.408 41.8026 281.391 38.8709L285.748 36.3737C287.2 40.9701 290.594 43.2684 295.931 43.2684C298.508 43.2684 300.487 42.7436 301.866 41.694C303.282 40.6444 303.99 39.2148 303.99 37.4051C303.99 35.6317 303.3 34.2745 301.921 33.3335C300.687 32.501 298.381 31.5419 295.005 30.4561L291.357 29.2618C290.558 28.9361 289.505 28.4655 288.198 27.8503C286.928 27.1988 286.002 26.5473 285.421 25.8959C283.824 24.1586 283.025 22.0413 283.025 19.5441C283.025 16.2143 284.187 13.6084 286.51 11.7264C288.834 9.77202 291.665 8.79482 295.005 8.79482C297.982 8.79482 300.596 9.53677 302.847 11.0207C305.097 12.5046 306.785 14.5314 307.911 17.101L303.663 19.5441C302.03 15.6352 299.144 13.6808 295.005 13.6808C292.936 13.6808 291.266 14.1875 289.995 15.2009C288.725 16.2143 288.089 17.5896 288.089 19.3269C288.089 20.9918 288.688 22.2585 289.886 23.1271C291.121 24.0319 293.19 24.9368 296.094 25.8416L298.327 26.5473C299.561 27.0178 300.233 27.2712 300.342 27.3074C301.503 27.7417 302.774 28.3389 304.154 29.0989C305.134 29.6418 306.114 30.4742 307.094 31.5962C308.365 32.863 309 34.7631 309 37.2966C309 40.6263 307.784 43.2865 305.352 45.2771C302.883 47.2315 299.706 48.2087 295.822 48.2087Z" fill="#B8601C"/>
<path d="M116.426 78.5902C114.539 78.5902 112.926 78.1589 111.589 77.2963C110.252 76.4141 109.347 75.228 108.875 73.7381L110.232 72.9441C110.606 74.238 111.323 75.2574 112.385 76.0024C113.447 76.7277 114.794 77.0904 116.426 77.0904C118.058 77.0904 119.327 76.7179 120.231 75.973C121.156 75.228 121.618 74.2282 121.618 72.9735C121.618 71.8561 121.185 70.9837 120.32 70.3563C119.494 69.7682 118.147 69.1703 116.279 68.5625L114.804 68.092L113.506 67.5921C112.897 67.3373 112.474 67.1314 112.238 66.9746C111.294 66.3864 110.684 65.8571 110.409 65.3866C109.957 64.6024 109.731 63.7693 109.731 62.8871C109.731 61.2207 110.321 59.8876 111.5 58.8878C112.7 57.8683 114.194 57.3586 115.984 57.3586C117.557 57.3586 118.914 57.7507 120.054 58.5349C121.215 59.3191 122.07 60.3679 122.621 61.6814L121.293 62.4166C120.33 60.0444 118.56 58.8584 115.984 58.8584C114.588 58.8584 113.457 59.2308 112.592 59.9758C111.746 60.7012 111.323 61.652 111.323 62.8283C111.323 63.9457 111.717 64.7789 112.503 65.3278C113.29 65.8767 114.578 66.4453 116.367 67.0334C117.528 67.4255 118.412 67.7489 119.022 68.0038C119.691 68.2783 120.379 68.6409 121.087 69.0918C122.503 69.9544 123.21 71.2385 123.21 72.9441C123.21 74.6497 122.591 76.022 121.352 77.061C120.133 78.0805 118.491 78.5902 116.426 78.5902Z" fill="#B8601C"/>
<path d="M134.465 63.5634V65.0043H130.07V74.5615C130.07 75.7573 130.385 76.4925 131.014 76.767C131.663 77.0414 132.814 77.1002 134.465 76.9434V78.2667C132.44 78.5608 130.945 78.4235 129.982 77.855C129.038 77.2669 128.566 76.169 128.566 74.5615V65.0043H125.322V63.5634H128.566V59.8876L130.07 59.4465V63.5634H134.465Z" fill="#B8601C"/>
<path d="M144.456 78.5902C142.293 78.5902 140.454 77.855 138.94 76.3847C137.446 74.8947 136.698 73.0715 136.698 70.9151C136.698 68.7586 137.446 66.9452 138.94 65.4748C140.435 63.9849 142.273 63.2399 144.456 63.2399C146.599 63.2399 148.418 63.9849 149.913 65.4748C151.427 66.9452 152.184 68.7586 152.184 70.9151C152.184 73.0519 151.427 74.8751 149.913 76.3847C148.399 77.855 146.58 78.5902 144.456 78.5902ZM140.002 75.3554C141.221 76.5709 142.706 77.1787 144.456 77.1787C146.186 77.1787 147.661 76.5709 148.88 75.3554C150.08 74.1596 150.68 72.6795 150.68 70.9151C150.68 69.1507 150.08 67.6705 148.88 66.4747C147.661 65.2592 146.186 64.6515 144.456 64.6515C142.706 64.6515 141.221 65.2592 140.002 66.4747C138.802 67.6705 138.203 69.1507 138.203 70.9151C138.203 72.6795 138.802 74.1596 140.002 75.3554Z" fill="#B8601C"/>
<path d="M163.078 63.2399C164.828 63.2399 166.214 63.7791 167.237 64.8573C168.279 65.9159 168.8 67.3373 168.8 69.1213V78.2667H167.296V69.1213C167.296 67.7489 166.912 66.6609 166.145 65.8571C165.378 65.0533 164.317 64.6515 162.96 64.6515C161.406 64.6515 160.158 65.1612 159.214 66.1806C158.27 67.2 157.798 68.6409 157.798 70.5034V78.2667H156.323V63.5634H157.798V66.357C158.86 64.279 160.62 63.2399 163.078 63.2399Z" fill="#B8601C"/>
<path d="M180.199 63.2399C182.362 63.2399 184.112 64.0045 185.449 65.5337C186.806 67.0628 187.484 68.8762 187.484 70.9739C187.484 71.0131 187.475 71.1307 187.455 71.3267C187.455 71.5228 187.455 71.6404 187.455 71.6796H174.093C174.27 73.3264 174.929 74.6595 176.069 75.6789C177.21 76.6787 178.636 77.1787 180.346 77.1787C181.507 77.1787 182.529 76.9434 183.414 76.4729C184.299 75.9828 184.977 75.326 185.449 74.5027L186.747 75.2672C186.137 76.2867 185.262 77.1002 184.122 77.708C183.001 78.2961 181.733 78.5902 180.317 78.5902C178.036 78.5902 176.178 77.8746 174.742 76.4435C173.287 74.9928 172.559 73.15 172.559 70.9151C172.559 68.7194 173.267 66.8962 174.683 65.4454C176.138 63.9751 177.977 63.2399 180.199 63.2399ZM180.199 64.6515C178.547 64.6515 177.151 65.171 176.01 66.21C174.89 67.249 174.25 68.5919 174.093 70.2387H185.951C185.793 68.4939 185.164 67.1314 184.063 66.1512C182.962 65.1514 181.674 64.6515 180.199 64.6515Z" fill="#B8601C"/>
<path d="M211.715 57.6821V59.1524H201.833V67.3863H211.361V68.8566H201.833V78.2667H200.27V57.6821H211.715Z" fill="#B8601C"/>
<path d="M228.81 66.8864V63.5634H230.314V78.2667H228.81V74.9438C228.161 76.0808 227.286 76.9728 226.185 77.6198C225.084 78.2667 223.845 78.5902 222.468 78.5902C220.384 78.5902 218.585 77.855 217.071 76.3847C215.576 74.8947 214.829 73.0715 214.829 70.9151C214.829 68.7586 215.576 66.9452 217.071 65.4748C218.565 63.9849 220.364 63.2399 222.468 63.2399C223.845 63.2399 225.084 63.5634 226.185 64.2104C227.286 64.8573 228.161 65.7493 228.81 66.8864ZM218.132 75.3554C219.352 76.5709 220.836 77.1787 222.586 77.1787C224.317 77.1787 225.792 76.5709 227.011 75.3554C228.21 74.1596 228.81 72.6795 228.81 70.9151C228.81 69.1507 228.21 67.6705 227.011 66.4747C225.792 65.2592 224.317 64.6515 222.586 64.6515C220.836 64.6515 219.352 65.2592 218.132 66.4747C216.933 67.6705 216.333 69.1507 216.333 70.9151C216.333 72.6795 216.933 74.1596 218.132 75.3554Z" fill="#B8601C"/>
<path d="M242.188 78.5902C239.966 78.5902 238.117 77.855 236.642 76.3847C235.168 74.9143 234.43 73.0911 234.43 70.9151C234.43 68.739 235.168 66.9158 236.642 65.4454C238.117 63.9751 239.966 63.2399 242.188 63.2399C243.623 63.2399 244.921 63.583 246.081 64.2692C247.241 64.9357 248.087 65.8473 248.618 67.004L247.408 67.7097C246.976 66.7687 246.288 66.0238 245.344 65.4748C244.419 64.9259 243.367 64.6515 242.188 64.6515C240.437 64.6515 238.953 65.2592 237.734 66.4747C236.534 67.6705 235.934 69.1507 235.934 70.9151C235.934 72.6991 236.534 74.189 237.734 75.3848C238.933 76.5807 240.418 77.1787 242.188 77.1787C243.367 77.1787 244.419 76.9042 245.344 76.3553C246.288 75.8063 247.005 75.0614 247.497 74.1204L248.736 74.8555C248.146 75.9926 247.261 76.9042 246.081 77.5903C244.901 78.2569 243.603 78.5902 242.188 78.5902Z" fill="#B8601C"/>
<path d="M260.108 63.5634V65.0043H255.713V74.5615C255.713 75.7573 256.028 76.4925 256.657 76.767C257.306 77.0414 258.456 77.1002 260.108 76.9434V78.2667C258.083 78.5608 256.588 78.4235 255.625 77.855C254.681 77.2669 254.209 76.169 254.209 74.5615V65.0043H250.964V63.5634H254.209V59.8876L255.713 59.4465V63.5634H260.108Z" fill="#B8601C"/>
<path d="M270.098 78.5902C267.935 78.5902 266.097 77.855 264.583 76.3847C263.088 74.8947 262.341 73.0715 262.341 70.9151C262.341 68.7586 263.088 66.9452 264.583 65.4748C266.077 63.9849 267.916 63.2399 270.098 63.2399C272.242 63.2399 274.061 63.9849 275.555 65.4748C277.069 66.9452 277.826 68.7586 277.826 70.9151C277.826 73.0519 277.069 74.8751 275.555 76.3847C274.041 77.855 272.222 78.5902 270.098 78.5902ZM265.645 75.3554C266.864 76.5709 268.348 77.1787 270.098 77.1787C271.829 77.1787 273.304 76.5709 274.523 75.3554C275.722 74.1596 276.322 72.6795 276.322 70.9151C276.322 69.1507 275.722 67.6705 274.523 66.4747C273.304 65.2592 271.829 64.6515 270.098 64.6515C268.348 64.6515 266.864 65.2592 265.645 66.4747C264.445 67.6705 263.845 69.1507 263.845 70.9151C263.845 72.6795 264.445 74.1596 265.645 75.3554Z" fill="#B8601C"/>
<path d="M283.44 63.5634V66.4453C284.325 64.3868 285.967 63.3576 288.366 63.3576V64.7691C286.911 64.7691 285.721 65.2298 284.797 66.1512C283.893 67.0726 283.44 68.3861 283.44 70.0917V78.2667H281.966V63.5634H283.44Z" fill="#B8601C"/>
<path d="M297.897 76.6493L303.03 63.5634H304.622L298.251 79.6194C297.661 81.0897 296.845 82.2366 295.803 83.06C294.761 83.8833 293.63 84.246 292.411 84.148V82.7659C293.335 82.8443 294.181 82.5797 294.948 81.9719C295.715 81.3642 296.334 80.482 296.806 79.3253L297.13 78.5313L290.346 63.5634H291.939L297.897 76.6493Z" fill="#B8601C"/>
<path d="M0.453789 23.299L2.49584 27.8231H35.1686V89.4875L6.80683 78.9573V42.3002H19.0591V73.064L23.597 75.0998V37.7761H2.26894V82.1001L39.7065 96V23.299H0.453789Z" fill="#B8601C"/>
<path d="M44.9251 23.0728V95.7738L82.3627 81.8739V37.5499H61.0346V74.8736L65.5725 72.8378V42.074H77.8248V78.7311L49.463 89.2613V27.5969H82.1358L84.1778 23.0728H44.9251Z" fill="#B8601C"/>
<path d="M80.0937 0V11.084H44.5848V4.07168H40.0469V11.084H4.53789V0L0 1.80963V15.6081H84.6316V1.80963L80.0937 0Z" fill="#B8601C"/>
</svg>
